<svg xmlns="http://www.w3.org/2000/svg" viewBox="0 0 306 146.51"><title>sindicat de llogateres logo</title><path class="paths-logo-sdll" d="M21.34,0A29.36,29.36,0,0,1,25,.15a24.06,24.06,0,0,1,6.7,1.93c.77.35,2.17,1.07,2.32,1.19s.09,2,.09,9.19v9.11l-.87.23-.94.25s-.22-.22-.42-.52a14.11,14.11,0,0,0-4.83-4.48,5.54,5.54,0,0,0-2.39-.69,2.8,2.8,0,0,0-1.89.47A2.39,2.39,0,0,0,22,20.18c.55,1.11,1.45,2,4.59,4.4a31.18,31.18,0,0,1,3.42,3,19,19,0,0,1,2.7,3.24,17.41,17.41,0,0,1,2.93,9.42c.36,6.47-1.81,12.63-5.88,16.69a17.35,17.35,0,0,1-9.95,4.93,32.45,32.45,0,0,1-5.58,0,30,30,0,0,1-8.61-2.35l-.46-.2,0-9.43V40.4L6,40.18l.92-.25c.13,0,.2,0,.44.41s.54.74.83,1.11a12,12,0,0,0,5.77,4.22,5.65,5.65,0,0,0,2.67.06,3.21,3.21,0,0,0,2-1.59A2.06,2.06,0,0,0,18.8,43a3.4,3.4,0,0,0-.59-2.1,11.64,11.64,0,0,0-2.14-2.13,55.94,55.94,0,0,1-5.45-4.83A19,19,0,0,1,5.07,22.81a35,35,0,0,1,0-5.51C5.9,12,7.9,7.69,11,4.59A15.64,15.64,0,0,1,21.34,0M211.79,0c-1.42.14-1.82.18-2.5.3a23.92,23.92,0,0,0-14.21,8c-4.15,4.91-6.43,11.46-6.94,19.87a63.42,63.42,0,0,0,.32,9.78c.95,7.38,3.59,13.45,7.69,17.65a20.77,20.77,0,0,0,12.24,6.18,29.55,29.55,0,0,0,4.89.14,21.62,21.62,0,0,0,7.38-2l.75-.34v-.24c0-.13.19-3.92.44-8.41s.42-8.19.39-8.22-1.59-.72-1.67-.72a1.26,1.26,0,0,0-.38.3,13,13,0,0,1-3.46,2.44,8,8,0,0,1-5.79.2c-2.93-1.12-4.91-4.74-5.55-10.17-.58-5,.07-10.26,1.69-13.56a8.93,8.93,0,0,1,2.81-3.43,7.19,7.19,0,0,1,5.42-1,7.77,7.77,0,0,1,4,2.36l.61.59.87-.35.86-.33V1.68l-.79-.3a19.83,19.83,0,0,0-6-1.33,28.57,28.57,0,0,0-3.05,0M43.16,1.48,42.67,2V60l.49.48.49.48h14.9l.49-.48.49-.48V2L59,1.5,58.48,1H43.64Zm25.46,0L68.14,2V60l.49.48.49.48h14.3l.48-.49.5-.49,0-10.43c0-10.76,0-10.79-.31-14.38,0-.4,0-.74,0-.74s2,6,4.38,13.26L92.76,61h15l.49-.48.49-.48V2l-.53-.52L107.72,1H93.5L93,1.47,92.52,2v8.58c0,9.83,0,10.68.54,15.81.11,1.08.19,2,.18,2s-2.1-6.13-4.64-13.66L84,1H69.11ZM118.29,1l7.21,0c7.69,0,7.89,0,10.08.38a25.08,25.08,0,0,1,11.7,4.91,29.15,29.15,0,0,1,3.45,3.4,29.24,29.24,0,0,1,2.18,3.17c2.93,5,4.36,11.52,4.19,19.08a41.66,41.66,0,0,1-2.52,14.68,21.43,21.43,0,0,1-9,11,25.79,25.79,0,0,1-11.73,3.3c-.63,0-4.09.06-8.33.06h-7.25l-.49-.48-.49-.48V2l.49-.49Zm16.76,16.84a5.44,5.44,0,0,0-.65-.2l-.23,0V31.21c0,12.18,0,13.62.1,13.62a4.73,4.73,0,0,0,1.41-.54c1.8-1,3.08-3.34,3.77-6.77,1-4.85.63-11.69-.78-15.42-.85-2.26-2-3.64-3.62-4.28M164.66,1.48l-.49.48V60l.5.48.49.48h14.9l.49-.48L181,60V2l-.53-.52L180,1H165.15ZM239.83,1h9.87l9.86,0,5.88,29.36c4.7,23.49,5.87,29.39,5.81,29.49s-.27.35-.5.62l-.41.48H254.13l0-.22c0-.19-1.05-7.18-1.05-7.23s-1.84,0-4.09,0h-4.08l-.61,3.72-.61,3.72-8.08,0h-8.06L227,60.4a3.45,3.45,0,0,1-.48-.66c0-.07,13-57.61,13.24-58.6ZM250.2,32.16c-.45-3.77-.83-6.94-.84-7s0-.2-.07,0-.07.39-.11.66l-2,13.26,0,.22h1.93c1.7,0,1.93,0,1.93-.11s-.36-3.18-.8-7M270,1.51l-.52.51V16.17l.49.49.49.48h7.14V60l.5.48.48.48h14.9l.49-.48.5-.48V17.14h7.49l.49-.49.48-.48V2l-.48-.48L301.91,1H270.48ZM.43,80.92C.65,80.79,2,80.79,153,80.79s152.36,0,152.57.13a1,1,0,0,1,.33.33c.09.18.1,3.46.1,32.4s0,32.22-.1,32.4a1,1,0,0,1-.33.33c-.21.13-1.58.13-152.57.13S.65,146.51.43,146.38a1,1,0,0,1-.33-.33c-.09-.18-.1-3.46-.1-32.4s0-32.22.1-32.4a1,1,0,0,1,.33-.33M126,99a18.39,18.39,0,0,0-3.48-.1,9.82,9.82,0,0,0-3.49,1c-2.66,1.32-4.63,3.77-5.86,7.31a23.29,23.29,0,0,0,0,14.21c1.62,4.67,4.64,7.53,8.67,8.25a16.79,16.79,0,0,0,4.13,0c4-.72,7-3.58,8.67-8.25a23.29,23.29,0,0,0,0-14.21c-1.23-3.54-3.2-6-5.89-7.32A10.35,10.35,0,0,0,126,99m27.35,0a19.9,19.9,0,0,0-3.54-.1,10.33,10.33,0,0,0-7.66,4.64,19.07,19.07,0,0,0-1.41,2.75,25.31,25.31,0,0,0-1.16,11.87,17,17,0,0,0,2.55,7.13,12.28,12.28,0,0,0,2.7,2.73,11.62,11.62,0,0,0,6.57,1.84,10.77,10.77,0,0,0,4.81-1,9,9,0,0,0,4.36-4.44c1.32-2.6,1.9-5.57,2-10.09l0-2.05h-11.4v5.81h1.2c1,0,1.24,0,1.43.12.56.27.63.72.32,2a3.75,3.75,0,0,1-1.09,2.08,2.42,2.42,0,0,1-1.77.82,2.94,2.94,0,0,1-3-2c-.61-1.49-.88-4.05-.82-7.7a16.53,16.53,0,0,1,.36-3.9,5.79,5.79,0,0,1,1.36-3,2.88,2.88,0,0,1,3.1-.75,3.69,3.69,0,0,1,1.7,2.32l.13.48s7.48-2.64,7.57-2.69a8.61,8.61,0,0,0-1-2A11.11,11.11,0,0,0,153.39,99m133.17,0a19.14,19.14,0,0,0-2.94-.13l-.75.1a8.92,8.92,0,0,0-4.9,2.58,11.19,11.19,0,0,0-2.55,5.14,13,13,0,0,0-.08,3.35,8.45,8.45,0,0,0,1.52,3.63,21.78,21.78,0,0,0,4.55,4.12c1.21.88,1.64,1.41,1.87,2.26.37,1.43-.42,2.57-2,2.94a2.46,2.46,0,0,1-1.22.07,7,7,0,0,1-4.1-2.18l-.53-.52v8.36l.36.12a15.31,15.31,0,0,0,5.67,1,9,9,0,0,0,4.59-1,9.5,9.5,0,0,0,5.2-7.16,16.11,16.11,0,0,0,0-3.54,7.94,7.94,0,0,0-1.39-3.37,17.67,17.67,0,0,0-4.32-3.78c-1.44-1-2.07-1.73-2.29-2.55a1.83,1.83,0,0,1,.43-1.81,2.41,2.41,0,0,1,1.32-.8,2.76,2.76,0,0,1,1.66,0,6.87,6.87,0,0,1,3.2,1.87l.61.59v-8.07l-.38-.17A14.38,14.38,0,0,0,286.56,99M27,99.57a48,48,0,0,0-5.06-.14l-4.25,0v30l4.66,0c4.9,0,5.26-.06,6.86-.38a12.7,12.7,0,0,0,4.88-2.12c2.67-2,4.24-5.12,4.78-9.5a34.35,34.35,0,0,0,0-5.83,16.61,16.61,0,0,0-.62-2.89,13.13,13.13,0,0,0-3.08-5.29A13.81,13.81,0,0,0,27,99.57m31.8-.16H43.48v30H58.79v-6.53l-3.33,0c-3.67,0-3.6,0-3.89-.43-.12-.17-.13-.34-.13-2.22s0-2.07.12-2.22c.28-.42.19-.42,3.48-.44l3,0V111l-3,0c-3.26,0-3.23,0-3.52-.44-.12-.17-.13-.33-.13-2s0-1.88.13-2.06c.29-.42.22-.41,3.89-.43l3.33,0V99.41Zm25.8,0H76.67v30H91.1v-6.53l-2.9,0c-3.18,0-3.16,0-3.44-.43-.12-.18-.13-.51-.15-11.58Zm18.22,0H94.89v30h14.42v-6.53l-2.89,0c-3.18,0-3.16,0-3.45-.43-.12-.18-.12-.51-.14-11.58Zm79.31,0h-5a45.61,45.61,0,0,0-5,.08s-1.7,6.74-3.73,14.86-3.71,14.83-3.73,14.9.18.11,4.08.1l4.11,0,.29-1.6c.16-.88.33-1.68.37-1.79a1,1,0,0,1,.29-.33c.21-.15.23-.15,2.92-.15,2.51,0,2.72,0,2.89.12a1.3,1.3,0,0,1,.29.28,11.44,11.44,0,0,1,.34,1.61l.27,1.68,0,.21h8.25l-.1-.41c-.05-.23-1.52-6.91-3.28-14.83s-3.19-14.48-3.21-14.57Zm23.57,0H188.08v6.8l2.06,0c2.26,0,2.28,0,2.54.48.1.19.11,1,.13,11.43v11.22h7.93V118.1c0-10.63,0-11.27.15-11.44.26-.41.27-.41,2.63-.43l2.15,0v-6.8Zm19.1,0h-15.3v30h15.3v-6.53l-3.33,0c-3.67,0-3.6,0-3.89-.43-.12-.17-.13-.34-.13-2.22s0-2.07.13-2.22c.27-.42.19-.42,3.48-.44l3,0V111l-3,0c-3.26,0-3.23,0-3.52-.44-.12-.17-.13-.33-.13-2s0-1.88.13-2.06c.29-.42.22-.41,3.89-.43l3.33,0V99.41Zm16.49.12c-.36,0-2.66-.08-5.8-.1l-5.2,0v30h7.92l0-4.72c0-4.5,0-4.72.15-4.9a.9.9,0,0,1,1.51,0c.07.12.92,2.33,1.88,4.9l1.75,4.69h8.56l-1.77-3.55L247.37,120c-.64-1.25-1.19-2.38-1.23-2.51a1.05,1.05,0,0,1,.22-.86,3.92,3.92,0,0,1,.68-.43,7.22,7.22,0,0,0,3.69-5.54,15.88,15.88,0,0,0-.17-4.24A8.23,8.23,0,0,0,248,101.9c-1.57-1.29-3.56-2-6.69-2.37m29.5-.12H255.47v30h15.31v-6.53l-3.33,0c-3.67,0-3.6,0-3.89-.43-.12-.17-.13-.34-.13-2.22s0-2.07.12-2.22c.28-.42.19-.42,3.48-.44l3,0V111l-3,0c-3.26,0-3.24,0-3.52-.44-.12-.17-.13-.33-.13-2s0-1.88.13-2.06c.29-.42.22-.41,3.89-.43l3.33,0V99.41ZM123.21,106a3.53,3.53,0,0,0-2,2.11c-1.1,2.6-1.28,8.09-.38,11.42.64,2.31,1.77,3.39,3.44,3.26,2.12-.18,3.29-2.82,3.42-7.72.09-3.67-.43-6.51-1.5-8a2.7,2.7,0,0,0-2.94-1.11m-97,.47a.89.89,0,0,0-.59.74c0,.16,0,3.54,0,7.52,0,7,0,7.25.15,7.43.28.41.71.48,1.49.25a4.89,4.89,0,0,0,3-3.57,14.88,14.88,0,0,0,.56-4.84,11.26,11.26,0,0,0-1.42-5.78,4,4,0,0,0-2.24-1.68c-.59-.16-.65-.17-1-.07m150.47,3.59a.81.81,0,0,0-.57.4c0,.11-.41,2-.77,4.21-.73,4.31-.73,4.3-.38,4.64s.62.31,2,.28c1.12,0,1.25,0,1.43-.16a1,1,0,0,0,.4-1c-.1-1.24-1-7.69-1.09-7.87a1,1,0,0,0-1-.47m62.14-4.7a.87.87,0,0,0-.6.73c0,.15,0,1.76,0,3.59l0,3.32.25.25.26.25h.59a3.4,3.4,0,0,0,2.91-1.67,5.25,5.25,0,0,0,.69-2.54,6,6,0,0,0-.44-2,3.79,3.79,0,0,0-1.38-1.43,4.1,4.1,0,0,0-2.28-.44"></path></svg>